#!OML:ASF I:\Actors\actors\Patient Classification 2\Patient 1\Session 1\actor1.ASF
:FULLY-SPECIFIED
:DEGREES
907
root -0.901939 18.5424 5.67333 -6.63237 -0.616872 -1.827
lowerback 7.67418 -0.265766 0.875873
upperback -1.2244 -0.222679 0.862322
thorax -5.58417 -0.123391 0.432841
lowerneck -12.7387 -1.75338 -1.65218
upperneck 19.6239 -2.56175 2.24818
head 8.23844 -1.11397 0.747426
rclavicle 4.78947e-015 -4.82053e-015
rhumerus -47.8385 -9.07381 -81.1283
rradius 39.4227
rwrist 22.9956
rhand -4.39498 -30.4102
rfingers 7.12502
rthumb 21.3746 -59.2513
lclavicle 4.78947e-015 -4.82053e-015
lhumerus -44.5713 6.14866 88.514
lradius 42.4951
lwrist -9.03638
lhand -8.49203 -28.8476
lfingers 7.12502
lthumb 17.4354 0.390449
rfemur 16.0503 2.82894 16.8875
rtibia 1.27222e-014
rfoot -19.88 -11.435
rtoes -1.61652
lfemur 3.62446 -7.4219 -12.2332
ltibia 20.838
lfoot -20.4832 8.94591
ltoes -55.7767
908
root -0.898105 18.5437 5.68456 -6.54414 -0.719296 -1.78538
lowerback 7.60308 -0.255924 0.886938
upperback -1.25963 -0.209345 0.858549
thorax -5.58081 -0.117275 0.420822
lowerneck -12.6796 -1.74252 -1.63307
upperneck 19.6011 -2.53381 2.16746
head 8.2181 -1.10805 0.720819
rclavicle 8.33653e-015 -8.34896e-015
rhumerus -47.961 -9.61499 -80.7711
rradius 38.5441
rwrist 23.8289
rhand -4.377 -31.4998
rfingers 7.12502
rthumb 21.3919 -60.3389
lclavicle 8.33653e-015 -8.34896e-015
lhumerus -44.4026 7.54106 87.7061
lradius 40.7031
lwrist -10.3556
lhand -8.38972 -28.5912
lfingers 7.12502
lthumb 17.5338 0.638103
rfemur 15.9829 2.9323 16.8409
rtibia 2.70347e-014
rfoot -19.9143 -11.4347
rtoes -1.66109
lfemur 3.62744 -7.45569 -12.311
ltibia 20.7975
lfoot -20.5702 9.05901
ltoes -55.7277
909
root -0.89181 18.5472 5.69875 -6.37273 -0.886229 -1.74545
lowerback 7.42536 -0.222128 0.942541
upperback -1.28938 -0.162464 0.838572
thorax -5.51128 -0.0961878 0.362233
lowerneck -12.7059 -1.72841 -1.62501
upperneck 19.5715 -2.50657 2.12819
head 8.21174 -1.09845 0.709151
rclavicle 9.56651e-016 -1.34677e-014
rhumerus -48.1926 -9.79738 -80.6989
rradius 38.1391
rwrist 24.4803
rhand -5.08842 -32.272
rfingers 7.12502
rthumb 20.7085 -61.1871
lclavicle 9.56651e-016 -1.34677e-014
lhumerus -44.4125 8.55017 87.0916
lradius 39.4634
lwrist -11.3445
lhand -8.14291 -28.1565
lfingers 7.12502
lthumb 17.7713 1.05149
rfemur 15.8072 3.09675 16.7867
rtibia -2.8625e-014
rfoot -19.9125 -11.4657
rtoes -1.87681
lfemur 3.57297 -7.56239 -12.4205
ltibia 20.7511
lfoot -20.724 9.30162
ltoes -55.6504
910
root -0.884 18.5517 5.71585 -6.13222 -1.01287 -1.66679
lowerback 7.14375 -0.199328 0.984952
upperback -1.3231 -0.134619 0.793278
thorax -5.38679 -0.0843313 0.286785
lowerneck -12.5514 -1.63103 -1.66268
upperneck 19.3322 -2.38945 2.26805
head 8.10347 -1.03404 0.775692
rclavicle -3.72721e-016 -3.926e-015
rhumerus -48.4479 -9.56008 -80.9319
rradius 38.0551
rwrist 24.7017
rhand -6.50381 -32.575
rfingers 7.12502
rthumb 19.348 -61.6325
lclavicle -3.72721e-016 -3.926e-015
lhumerus -44.5689 9.12296 86.7067
lradius 38.7021
lwrist -11.876
lhand -7.74968 -27.5646
lfingers 7.12502
lthumb 18.1497 1.60859
rfemur 15.5635 3.22347 16.6697
rtibia 3.81667e-014
rfoot -19.8895 -11.5102
rtoes -2.19571
lfemur 3.44359 -7.75876 -12.5929
ltibia 20.7081
lfoot -20.9158 9.57297
ltoes -55.5277
911
root -0.879944 18.5538 5.72724 -5.97047 -1.04499 -1.61175
lowerback 7.01854 -0.201509 0.984088
upperback -1.36719 -0.140444 0.767145
thorax -5.3619 -0.0876352 0.260428
lowerneck -12.1709 -1.51002 -1.75294
upperneck 18.8957 -2.25465 2.5438
head 7.89085 -0.954649 0.898374
rclavicle -1.67103e-015 4.96962e-017
rhumerus -48.7467 -9.0376 -81.3592
rradius 38.1924
rwrist 24.585
rhand -7.16759 -32.7022
rfingers 7.12502
rthumb 18.7096 -61.8224
lclavicle -1.67103e-015 4.96962e-017
lhumerus -44.3364 9.8553 86.2859
lradius 36.9307
lwrist -12.617
lhand -7.64312 -27.7407
lfingers 7.12502
lthumb 18.2522 1.42299
rfemur 15.415 3.25437 16.5907
rtibia 2.22639e-014
rfoot -19.9069 -11.5105
rtoes -2.18042
lfemur 3.33737 -7.81957 -12.6757
ltibia 20.6758
lfoot -20.9887 9.65123
ltoes -55.5119
912
root -0.878229 18.5551 5.73368 -5.85772 -1.06539 -1.61139
lowerback 7.01284 -0.213816 0.986001
upperback -1.40539 -0.155566 0.781523
thorax -5.39869 -0.0950844 0.276207
lowerneck -12.0756 -1.52308 -1.68726
upperneck 18.778 -2.25724 2.41018
head 7.83245 -0.96555 0.84345
rclavicle -2.84511e-015 1.00883e-014
rhumerus -49.0847 -8.42085 -81.8608
rradius 38.4819
rwrist 24.4129
rhand -6.59448 -32.5056
rfingers 7.12502
rthumb 19.2608 -61.5718
lclavicle -2.84511e-015 1.00883e-014
lhumerus -45.3028 9.20853 86.6218
lradius 38.4974
lwrist -12.0421
lhand -6.6519 -26.5669
lfingers 7.12502
lthumb 19.2056 2.50483
rfemur 15.3138 3.2673 16.5895
rtibia -2.54444e-014
rfoot -19.9128 -11.5076
rtoes -2.00541
lfemur 3.24968 -7.72888 -12.6481
ltibia 20.6498
lfoot -20.9608 9.63718
ltoes -55.6088
